<svg width="12" height="9" viewBox="0 0 12 9" fill="none" xmlns="http://www.w3.org/2000/svg">
<path d="M5.99999 8.5C5.64999 8.5 5.35415 8.37917 5.11249 8.1375C4.87082 7.89583 4.74999 7.6 4.74999 7.25C4.74999 6.9 4.87082 6.60417 5.11249 6.3625C5.35415 6.12083 5.64999 6 5.99999 6C6.34999 6 6.64582 6.12083 6.88749 6.3625C7.12915 6.60417 7.24999 6.9 7.24999 7.25C7.24999 7.6 7.12915 7.89583 6.88749 8.1375C6.64582 8.37917 6.34999 8.5 5.99999 8.5ZM5.99999 3C6.62499 3 7.21882 3.1 7.78149 3.3C8.34415 3.5 8.85449 3.775 9.31249 4.125C9.47915 4.25 9.56465 4.41467 9.56899 4.619C9.57332 4.82333 9.50032 5.00033 9.34999 5.15C9.20832 5.29167 9.03332 5.36467 8.82499 5.369C8.61665 5.37333 8.42915 5.317 8.26249 5.2C7.94582 4.98333 7.59582 4.8125 7.21249 4.6875C6.82915 4.5625 6.42499 4.5 5.99999 4.5C5.57499 4.5 5.17082 4.5625 4.78749 4.6875C4.40415 4.8125 4.05415 4.98333 3.73749 5.2C3.57082 5.31667 3.38332 5.37083 3.17499 5.3625C2.96665 5.35417 2.79165 5.27917 2.64999 5.1375C2.50832 4.9875 2.43749 4.8105 2.43749 4.6065C2.43749 4.4025 2.52082 4.23783 2.68749 4.1125C3.14582 3.7625 3.65632 3.4895 4.21899 3.2935C4.78165 3.0975 5.37532 2.99967 5.99999 3ZM5.99999 0C7.04165 0 8.02299 0.170833 8.94399 0.5125C9.86499 0.854167 10.692 1.3375 11.425 1.9625C11.5917 2.10417 11.6792 2.27917 11.6875 2.4875C11.6958 2.69583 11.625 2.875 11.475 3.025C11.3333 3.16667 11.1583 3.23967 10.95 3.244C10.7417 3.24833 10.5542 3.18367 10.3875 3.05C9.78749 2.55833 9.11465 2.17717 8.36899 1.9065C7.62332 1.63583 6.83365 1.50033 5.99999 1.5C5.16632 1.49967 4.37682 1.63517 3.63149 1.9065C2.88615 2.17783 2.21315 2.559 1.61249 3.05C1.44582 3.18333 1.25832 3.248 1.04999 3.244C0.841653 3.24 0.666653 3.167 0.524986 3.025C0.374986 2.875 0.304153 2.69583 0.312487 2.4875C0.32082 2.27917 0.40832 2.10417 0.574986 1.9625C1.30832 1.3375 2.13549 0.854167 3.05649 0.5125C3.97749 0.170833 4.95865 0 5.99999 0Z" fill="#008236"/>
</svg>
