<svg width="12" height="10" viewBox="0 0 12 10" fill="none" xmlns="http://www.w3.org/2000/svg">
<path d="M4.16251 7.3625L10.5188 1.00625C10.6688 0.85625 10.8438 0.78125 11.0438 0.78125C11.2438 0.78125 11.4188 0.85625 11.5688 1.00625C11.7188 1.15625 11.7938 1.3345 11.7938 1.541C11.7938 1.7475 11.7188 1.9255 11.5688 2.075L4.68751 8.975C4.53751 9.125 4.36251 9.2 4.16251 9.2C3.96251 9.2 3.78751 9.125 3.63751 8.975L0.412513 5.75C0.262513 5.6 0.190513 5.422 0.196513 5.216C0.202513 5.01 0.280763 4.83175 0.431263 4.68125C0.581763 4.53075 0.760013 4.45575 0.966013 4.45625C1.17201 4.45675 1.35001 4.53175 1.50001 4.68125L4.16251 7.3625Z" fill="#2B7FFF"/>
</svg>
